<svg width="50" height="50" viewBox="0 0 50 50" fill="none" xmlns="http://www.w3.org/2000/svg">
<rect width="50" height="50" rx="8" fill="#1F1D24"/>
<path d="M17.64 38.32C16.8133 38.32 16.1733 38.0933 15.72 37.64C15.2933 37.16 15.08 36.5067 15.08 35.68V12.4C15.08 11.5467 15.3067 10.9067 15.76 10.48C16.2133 10.0267 16.8533 9.8 17.68 9.8H27.32C30.4133 9.8 32.8 10.5733 34.48 12.12C36.16 13.6667 37 15.8267 37 18.6C37 21.3733 36.16 23.5467 34.48 25.12C32.8 26.6667 30.4133 27.44 27.32 27.44H20.2V35.68C20.2 36.5067 19.9867 37.16 19.56 37.64C19.1333 38.0933 18.4933 38.32 17.64 38.32ZM20.2 23.4H26.52C28.3333 23.4 29.7067 23 30.64 22.2C31.5733 21.3733 32.04 20.1733 32.04 18.6C32.04 17.0267 31.5733 15.84 30.64 15.04C29.7067 14.24 28.3333 13.84 26.52 13.84H20.2V23.4Z" fill="#7F55D6"/>
</svg>
